<svg xmlns="http://www.w3.org/2000/svg" viewBox="0 0 500 500">
  <rect width="500" height="500" fill="black"/>
  <path d="M250 120 
           C 180 120, 140 180, 140 260 
           C 140 320, 130 400, 160 400 
           C 175 400, 190 380, 205 380 
           C 220 380, 235 400, 250 400 
           C 265 400, 280 380, 295 380 
           C 310 380, 325 400, 340 400 
           C 370 400, 360 320, 360 260 
           C 360 180, 320 120, 250 120 Z" 
        fill="white"/>
  <ellipse cx="220" cy="240" rx="12" ry="18" fill="black"/>
  <ellipse cx="280" cy="240" rx="12" ry="18" fill="black"/>
</svg>
